<svg width="23" height="23" fill="none" xmlns="http://www.w3.org/2000/svg" color="#fe0021"><path d="M19.632 3.368A11.425 11.425 0 0011.5 0C8.428 0 5.54 1.196 3.368 3.368A11.425 11.425 0 000 11.5c0 3.072 1.196 5.96 3.368 8.132A11.425 11.425 0 0011.5 23c3.072 0 5.96-1.196 8.132-3.368A11.424 11.424 0 0023 11.5c0-3.072-1.196-5.96-3.368-8.132zm-.527 15.737a10.685 10.685 0 01-7.605 3.15 10.684 10.684 0 01-7.605-3.15A10.684 10.684 0 01.745 11.5c0-2.873 1.119-5.574 3.15-7.605A10.684 10.684 0 0111.5.745c2.873 0 5.573 1.119 7.605 3.15a10.685 10.685 0 013.15 7.605c0 2.873-1.119 5.573-3.15 7.605z" fill="currentColor"></path><path d="M21.07 10.305c-.106-.233-.205-.453-.246-.66-.043-.217-.036-.465-.027-.728.012-.401.025-.817-.139-1.21-.166-.402-.472-.688-.768-.965-.188-.177-.367-.344-.486-.522-.122-.182-.209-.412-.301-.656-.143-.377-.29-.767-.595-1.071-.304-.304-.694-.452-1.07-.595-.245-.092-.475-.18-.656-.301-.18-.12-.346-.298-.523-.487-.277-.296-.563-.601-.965-.768-.394-.163-.809-.15-1.21-.138-.263.008-.511.016-.73-.027-.205-.041-.425-.14-.658-.246-.354-.16-.755-.341-1.196-.341-.44 0-.841.181-1.195.341-.233.105-.453.205-.66.246-.217.043-.465.035-.728.027-.402-.012-.817-.025-1.21.138-.402.167-.688.472-.965.768-.177.189-.344.367-.523.487-.181.121-.412.208-.655.3-.377.144-.767.291-1.071.595-.305.305-.452.694-.595 1.071-.092.244-.18.474-.301.656-.12.179-.298.346-.487.522-.296.277-.601.564-.768.965-.163.394-.15.81-.138 1.21.008.263.016.511-.027.73-.041.206-.14.426-.246.659-.16.354-.341.754-.341 1.195 0 .441.181.842.341 1.196.105.232.205.453.246.659.043.218.035.466.027.729-.012.401-.025.816.138 1.21.167.401.472.688.768.965.189.176.367.343.487.522.121.181.208.412.3.656.144.377.291.766.595 1.07.304.305.694.453 1.071.595.244.093.474.18.656.302.179.12.346.298.522.486.277.296.564.602.965.768.394.164.81.15 1.21.138.263-.008.511-.015.73.028.206.04.426.14.659.245.354.16.754.342 1.195.342.441 0 .842-.182 1.196-.341.232-.106.453-.205.659-.246.218-.043.466-.036.729-.027.401.012.816.025 1.21-.139.401-.166.688-.472.965-.768.176-.188.343-.367.522-.486.181-.122.412-.209.656-.301.377-.143.766-.29 1.07-.595.305-.304.453-.694.595-1.07.093-.245.18-.475.302-.656.12-.18.297-.346.486-.523.296-.277.602-.563.768-.965.164-.394.15-.809.138-1.21-.008-.263-.015-.511.028-.729.04-.206.14-.426.245-.66.16-.353.342-.754.342-1.195 0-.44-.182-.841-.341-1.195zm-.68 2.084c-.118.26-.24.53-.297.821-.06.301-.05.604-.041.897.01.337.02.656-.082.902-.105.253-.34.473-.59.706-.21.198-.428.402-.596.652-.169.252-.275.534-.378.806-.12.318-.234.617-.425.808-.191.191-.49.305-.808.425-.273.103-.554.21-.807.379-.25.167-.454.385-.651.596-.233.25-.454.484-.707.59-.245.101-.564.091-.901.08-.293-.008-.596-.018-.897.042-.29.057-.56.18-.821.297-.313.142-.609.275-.889.275s-.575-.133-.888-.275c-.261-.118-.531-.24-.822-.297a2.933 2.933 0 00-.572-.048c-.109 0-.217.003-.324.007-.338.01-.657.02-.902-.082-.253-.105-.474-.34-.707-.59-.197-.21-.402-.428-.652-.596-.252-.168-.534-.275-.806-.378-.317-.12-.617-.234-.808-.425-.19-.191-.304-.49-.424-.808-.104-.272-.21-.554-.38-.806-.166-.25-.385-.455-.596-.652-.249-.233-.484-.454-.589-.707-.102-.245-.092-.564-.081-.901.009-.293.018-.596-.041-.897-.058-.29-.18-.56-.298-.821-.141-.313-.275-.609-.275-.889s.134-.575.275-.888c.118-.261.24-.531.298-.822.06-.301.05-.604.04-.896-.01-.338-.02-.657.083-.902.104-.253.34-.474.589-.707.21-.197.429-.402.596-.651.17-.253.276-.534.379-.807.12-.317.234-.617.425-.808.19-.19.49-.304.808-.424.272-.104.554-.21.806-.38.25-.166.454-.385.652-.596.233-.249.453-.484.706-.589.246-.101.564-.092.902-.081.293.009.595.018.896-.041.29-.058.56-.18.822-.298.313-.141.608-.275.888-.275s.576.134.889.275c.26.118.53.24.821.298.301.06.604.05.897.04.337-.01.656-.02.902.083.253.104.473.34.706.589.198.21.402.429.652.596.252.17.534.276.806.379.318.12.617.234.808.425.191.19.305.49.425.808.103.272.21.554.379.806.167.25.385.454.596.652.249.233.484.453.59.706.1.246.091.564.08.902-.008.293-.018.595.042.896.057.29.18.56.297.822.142.313.275.608.275.888s-.133.576-.275.889z" fill="currentColor"></path><path d="M9.116 8.296c.862 0 1.564-.702 1.564-1.565s-.702-1.565-1.564-1.565c-.863 0-1.565.702-1.565 1.565s.702 1.565 1.565 1.565zm0-2.385a.82.82 0 010 1.64.82.82 0 010-1.64zm8.322 3.601c0-.863-.702-1.565-1.565-1.565-.862 0-1.564.702-1.564 1.565s.702 1.565 1.564 1.565c.863 0 1.565-.702 1.565-1.565zm-1.565.82a.82.82 0 010-1.64.82.82 0 010 1.64zm-2.386 4.77c-.863 0-1.565.701-1.565 1.564 0 .863.702 1.565 1.565 1.565s1.565-.702 1.565-1.565-.702-1.564-1.565-1.564zm0 2.384a.82.82 0 010-1.64.82.82 0 010 1.64zM9.09 13.09c0-.863-.701-1.565-1.564-1.565-.863 0-1.565.702-1.565 1.565s.702 1.565 1.565 1.565 1.565-.702 1.565-1.565zm-1.564.82a.82.82 0 010-1.64.82.82 0 010 1.64zm5.539-1.616a1.169 1.169 0 00-2.335 0 1.169 1.169 0 002.335 0zm-1.167.423a.423.423 0 110-.846.423.423 0 010 .846zm1.59-5.613c.643 0 1.167-.523 1.167-1.167a1.168 1.168 0 00-2.335 0c0 .644.524 1.167 1.168 1.167zm0-1.59a.423.423 0 11-.001.846.423.423 0 010-.845zm3.574 6.806a1.169 1.169 0 000 2.335 1.168 1.168 0 000-2.335zm0 1.59a.423.423 0 110-.845.423.423 0 010 .845zm-7.945 1.986a1.169 1.169 0 000 2.335 1.168 1.168 0 000-2.335zm0 1.59a.423.423 0 110-.845.423.423 0 010 .845zm-3.18-7.204a1.168 1.168 0 000-2.335 1.169 1.169 0 000 2.335zm0-1.59a.423.423 0 11-.001.846.423.423 0 010-.846zm4.141.488a.373.373 0 00-.333.666l.795.398a.37.37 0 00.5-.167.373.373 0 00-.167-.5l-.795-.397zm2.216-.09a.372.372 0 00.264-.11l.397-.397a.373.373 0 10-.527-.527l-.397.398a.373.373 0 00.263.636zm-1.327 5.327l-.397-.398a.373.373 0 00-.527.527l.397.398a.372.372 0 10.527-.527zm3.579-1.987a.372.372 0 10-.527.526l.398.398a.372.372 0 00.527 0 .372.372 0 000-.527l-.398-.398zm4.338-2.059l-.795.398a.373.373 0 10.333.666l.795-.397a.372.372 0 10-.333-.667zM5.006 11.634a.373.373 0 00-.527 0l-.397.398a.373.373 0 00.527.527l.397-.398a.373.373 0 000-.527zm5.833-7.024a.371.371 0 00.526 0 .373.373 0 000-.527l-.397-.398a.372.372 0 10-.527.527l.398.398zm.264 13.273a.373.373 0 00-.373.372v.398a.373.373 0 00.746 0v-.398a.373.373 0 00-.373-.372zm5.298-2.276l-.397.398a.373.373 0 00.526.526l.398-.397a.373.373 0 00-.527-.527zm-10.203 0a.373.373 0 00-.526.527l.397.397a.371.371 0 00.527 0 .372.372 0 000-.526l-.398-.398zM16.006 6.2a.372.372 0 00.527 0 .373.373 0 000-.527l-.397-.398a.373.373 0 00-.527.527l.397.397zm1.456 1.7a.374.374 0 00.373-.373.374.374 0 00-.373-.373.374.374 0 00-.372.373.374.374 0 00.372.372zm-4.634 2.145a.374.374 0 000 .526.374.374 0 00.527 0 .374.374 0 00-.264-.635.374.374 0 00-.263.109zm-4.769.396a.373.373 0 10.527.528.373.373 0 00-.527-.528zM6.334 6.706a.374.374 0 00.372-.372.373.373 0 10-.372.372zm6.096 7.314a.374.374 0 000 .526.374.374 0 00.636-.263.374.374 0 00-.373-.373.374.374 0 00-.263.11zm.263 4.658a.374.374 0 00-.373.372.373.373 0 00.745 0 .374.374 0 00-.372-.372zm-7.551-5.166a.374.374 0 00-.372.372.374.374 0 00.372.373.374.374 0 00.373-.373.374.374 0 00-.373-.372z" fill="currentColor"></path></svg>