<svg width="23" height="23" fill="none" xmlns="http://www.w3.org/2000/svg"><path d="M11.448 0c.006.006.018.006.037.006 6.236 0 11.308 5.072 11.308 11.308 0 2.545-.869 5.016-2.459 7.007l1.646 3.82a.613.613 0 01-.32.808.626.626 0 01-.352.043l-6.033-1.06c-1.208.437-2.477.66-3.76.653C5.28 22.585.209 17.513.209 11.277.195 5.06 5.23.007 11.448 0zm.062 21.359a9.889 9.889 0 003.481-.635.59.59 0 01.327-.03l5.078.887-1.344-3.125a.62.62 0 01.099-.647 9.852 9.852 0 001.713-2.847c.456-1.164.69-2.403.69-3.654 0-5.558-4.523-10.076-10.075-10.076C5.939 1.22 1.44 5.7 1.434 11.24v.037c0 5.565 4.523 10.082 10.076 10.082z" fill="#FE0021"></path><path d="M11.99 9.04h3.327c.34 0 .617.278.617.617a.618.618 0 01-.617.616H11.99a.618.618 0 01-.617-.616c0-.34.278-.617.617-.617zm-4.314 3.081h7.641c.34 0 .617.278.617.617a.618.618 0 01-.617.616H7.676a.618.618 0 01-.616-.616c0-.34.277-.617.616-.617z" fill="#FE0021"></path></svg>